<svg width="1471" height="490" viewBox="0 0 1471 490" fill="none" xmlns="http://www.w3.org/2000/svg">
<g clip-path="url(#clip0_206_19)">
<path d="M1517 196L1435.22 228.7C1353.44 261 1189.89 327 1026.33 334.8C862.778 343 699.222 294 535.667 245C372.111 196 208.556 147 45 138.8C-118.556 131 -282.111 163 -445.667 212.3C-609.222 261 -772.778 327 -936.333 367.5C-1099.89 408 -1263.44 425 -1427 367.5C-1590.56 310 -1754.11 180 -1917.67 147C-2081.22 114 -2244.78 180 -2408.33 212.3C-2571.89 245 -2735.44 245 -2899 245C-3062.56 245 -3226.11 245 -3389.67 253.2C-3553.22 261 -3716.78 278 -3880.33 245C-4043.89 212 -4207.44 131 -4371 147C-4534.56 163 -4698.11 278 -4861.67 310.3C-5025.22 343 -5188.78 294 -5352.33 302.2C-5515.89 310 -5679.44 376 -5843 392C-6006.56 408 -6170.11 376 -6333.67 375.7C-6497.22 376 -6660.78 408 -6824.33 383.8C-6987.89 359 -7151.44 278 -7315 228.7C-7478.56 180 -7642.11 163 -7805.67 147C-7969.22 131 -8132.78 114 -8296.33 106.2C-8459.89 98 -8623.44 98 -8787 114.3C-8950.56 131 -9114.11 163 -9277.67 220.5C-9441.22 278 -9604.78 359 -9768.33 375.7C-9931.89 392 -10095.4 343 -10177.2 318.5L-10259 294V3.05176e-05H-10177.2C-10095.4 3.05176e-05 -9931.89 3.05176e-05 -9768.33 3.05176e-05C-9604.78 3.05176e-05 -9441.22 3.05176e-05 -9277.67 3.05176e-05C-9114.11 3.05176e-05 -8950.56 3.05176e-05 -8787 3.05176e-05C-8623.44 3.05176e-05 -8459.89 3.05176e-05 -8296.33 3.05176e-05C-8132.78 3.05176e-05 -7969.22 3.05176e-05 -7805.67 3.05176e-05C-7642.11 3.05176e-05 -7478.56 3.05176e-05 -7315 3.05176e-05C-7151.44 3.05176e-05 -6987.89 3.05176e-05 -6824.33 3.05176e-05C-6660.78 3.05176e-05 -6497.22 3.05176e-05 -6333.67 3.05176e-05C-6170.11 3.05176e-05 -6006.56 3.05176e-05 -5843 3.05176e-05C-5679.44 3.05176e-05 -5515.89 3.05176e-05 -5352.33 3.05176e-05C-5188.78 3.05176e-05 -5025.22 3.05176e-05 -4861.67 3.05176e-05C-4698.11 3.05176e-05 -4534.56 3.05176e-05 -4371 3.05176e-05C-4207.44 3.05176e-05 -4043.89 3.05176e-05 -3880.33 3.05176e-05C-3716.78 3.05176e-05 -3553.22 3.05176e-05 -3389.67 3.05176e-05C-3226.11 3.05176e-05 -3062.56 3.05176e-05 -2899 3.05176e-05C-2735.44 3.05176e-05 -2571.89 3.05176e-05 -2408.33 3.05176e-05C-2244.78 3.05176e-05 -2081.22 3.05176e-05 -1917.67 3.05176e-05C-1754.11 3.05176e-05 -1590.56 3.05176e-05 -1427 3.05176e-05C-1263.44 3.05176e-05 -1099.89 3.05176e-05 -936.333 3.05176e-05C-772.778 3.05176e-05 -609.222 3.05176e-05 -445.667 3.05176e-05C-282.111 3.05176e-05 -118.556 3.05176e-05 45 3.05176e-05C208.556 3.05176e-05 372.111 3.05176e-05 535.667 3.05176e-05C699.222 3.05176e-05 862.778 3.05176e-05 1026.33 3.05176e-05C1189.89 3.05176e-05 1353.44 3.05176e-05 1435.22 3.05176e-05H1517V196Z" fill="url(#paint0_linear_206_19)"/>
</g>
<defs>
<linearGradient id="paint0_linear_206_19" x1="1517" y1="3.05176e-05" x2="1517" y2="404.522" gradientUnits="userSpaceOnUse">
<stop offset="0.463649" stop-color="#121212"/>
</linearGradient>
<clipPath id="clip0_206_19">
<rect width="1472" height="490" fill="white" transform="matrix(-1 0 0 -1 1472 490)"/>
</clipPath>
</defs>
</svg>
