<svg width="1472" height="397" viewBox="0 0 1472 397" fill="none" xmlns="http://www.w3.org/2000/svg">
<g clip-path="url(#clip0_206_14)">
<path d="M-1 238.2L81.1111 211.706C163.222 185.537 327.444 132.063 491.667 125.744C655.889 119.1 820.111 158.8 984.333 198.5C1148.56 238.2 1312.78 277.9 1477 284.544C1641.22 290.863 1805.44 264.937 1969.67 224.994C2133.89 185.537 2298.11 132.063 2462.33 99.2499C2626.56 66.4366 2790.78 52.6631 2955 99.2499C3119.22 145.837 3283.44 251.163 3447.67 277.9C3611.89 304.637 3776.11 251.163 3940.33 224.994C4104.56 198.5 4268.78 198.5 4433 198.5C4597.22 198.5 4761.44 198.5 4925.67 191.856C5089.89 185.537 5254.11 171.763 5418.33 198.5C5582.56 225.237 5746.78 290.863 5911 277.9C6075.22 264.937 6239.44 171.763 6403.67 145.594C6567.89 119.1 6732.11 158.8 6896.33 152.156C7060.56 145.837 7224.78 92.3631 7389 79.3999C7553.22 66.4366 7717.44 92.3632 7881.67 92.6062C8045.89 92.3632 8210.11 66.4366 8374.33 86.0436C8538.56 106.137 8702.78 171.763 8867 211.706C9031.22 251.163 9195.44 264.937 9359.67 277.9C9523.89 290.863 9688.11 304.637 9852.33 310.956C10016.6 317.6 10180.8 317.6 10345 304.394C10509.2 290.863 10673.4 264.937 10837.7 218.35C11001.9 171.763 11166.1 106.137 11330.3 92.6062C11494.6 79.3999 11658.8 119.1 11740.9 138.95L11823 158.8V397H11740.9C11658.8 397 11494.6 397 11330.3 397C11166.1 397 11001.9 397 10837.7 397C10673.4 397 10509.2 397 10345 397C10180.8 397 10016.6 397 9852.33 397C9688.11 397 9523.89 397 9359.67 397C9195.44 397 9031.22 397 8867 397C8702.78 397 8538.56 397 8374.33 397C8210.11 397 8045.89 397 7881.67 397C7717.44 397 7553.22 397 7389 397C7224.78 397 7060.56 397 6896.33 397C6732.11 397 6567.89 397 6403.67 397C6239.44 397 6075.22 397 5911 397C5746.78 397 5582.56 397 5418.33 397C5254.11 397 5089.89 397 4925.67 397C4761.44 397 4597.22 397 4433 397C4268.78 397 4104.56 397 3940.33 397C3776.11 397 3611.89 397 3447.67 397C3283.44 397 3119.22 397 2955 397C2790.78 397 2626.56 397 2462.33 397C2298.11 397 2133.89 397 1969.67 397C1805.44 397 1641.22 397 1477 397C1312.78 397 1148.56 397 984.333 397C820.111 397 655.889 397 491.667 397C327.444 397 163.222 397 81.1111 397H-1V238.2Z" fill="url(#paint0_linear_206_14)"/>
</g>
<defs>
<linearGradient id="paint0_linear_206_14" x1="-1" y1="397" x2="-1" y2="69.2542" gradientUnits="userSpaceOnUse">
<stop offset="1" stop-color="#121212"/>
</linearGradient>
<clipPath id="clip0_206_14">
<rect width="1478" height="397" fill="white" transform="translate(-1)"/>
</clipPath>
</defs>
</svg>
